<?xml version="1.0" encoding="UTF-8"?>
<svg id="_レイヤー_1" data-name="レイヤー 1" xmlns="http://www.w3.org/2000/svg" viewBox="0 0 319.69 432.48">
  <defs>
    <style>
      .cls-1 {
        fill: #000;
        stroke-width: 0px;
      }
    </style>
  </defs>
  <g>
    <path class="cls-1" d="M254.08,381.21c.35.67.76,1.35,1.21,2.01.44.68.91,1.36,1.42,2.01.51.65,1.06,1.28,1.63,1.86.55.61,1.14,1.17,1.74,1.68,4.62,3.94,9.15,3.66,11.14.83.51-.74.8-1.62.86-2.61.05-.97-.12-2.04-.52-3.17-.77-2.28-2.54-4.69-5.15-6.85-1.24-.98-2.53-1.8-3.78-2.43-1.27-.61-2.54-1.01-3.69-1.24-1.6,2.64-3.22,5.27-4.85,7.89Z"/>
    <path class="cls-1" d="M255.77,371.67l-.18-.11c-1-.55-1.98-1.12-3-1.64l-3.04-1.54c-2.24-1.12-4.89-.14-5.85,2.03l-.24.54c-.98,2.19-.04,4.69,2.01,5.75,1.91.92,3.77,1.93,5.64,2.95l.18.09c1.52-2.68,3.01-5.37,4.49-8.08Z"/>
    <path class="cls-1" d="M278.06,419.04c.13,1.07.43,2.2.87,3.35.42,1.17,1,2.36,1.75,3.52,1.58,2.48,3.42,4.35,5.36,5.43,1.89,1.11,3.85,1.45,5.54.86,3.24-1.1,4.9-5.53,1.58-11.02-1.73-2.79-4.45-5.4-7.14-6.86l-7.96,4.73Z"/>
    <path class="cls-1" d="M276.62,416.21l-.1-.16c-1.06-1.73-2.08-3.5-3.23-5.18-1.21-1.86-.65-4.5,1.28-5.87l.48-.34c1.96-1.4,4.64-.87,5.97,1.12,1.22,1.79,2.29,3.68,3.44,5.51l.1.18-7.94,4.75Z"/>
  </g>
  <g>
    <path class="cls-1" d="M144.03,346.25c2.59,1.65,6.09,2.95,9.31,3.32,6.26.72,9.74-2.32,9.6-5.77-.14-3.57-4.39-6.83-10.7-7.54-2.95-.34-5.71-.03-7.83.74l-.37,9.25Z"/>
    <path class="cls-1" d="M141.02,337.08h-.2s-6.49-.17-6.49-.17c-2.37-.06-4.37,1.82-4.45,4.21l-.02.59c-.08,2.38,1.82,4.4,4.22,4.46l6.52.16h.2s.21-9.25.21-9.25Z"/>
    <path class="cls-1" d="M187.84,361.56c1.73,1.37,4.14,2.45,6.88,3.08,5.85,1.3,10.68-.16,12.21-3.4.72-1.56.6-3.39-.51-5.01-.55-.81-1.35-1.58-2.39-2.25-1.05-.65-2.35-1.18-3.9-1.56-1.59-.37-3.34-.51-5.04-.49-1.71.05-3.39.29-4.86.68l-2.39,8.95Z"/>
    <path class="cls-1" d="M184.74,360.52l-.19-.05c-2.03-.55-4.06-1.11-6.12-1.63-2.25-.58-3.64-2.93-3.09-5.24l.14-.57c.56-2.32,2.92-3.74,5.23-3.16,2.1.55,4.2,1.09,6.29,1.68l.19.06-2.46,8.91Z"/>
  </g>
  <g>
    <path class="cls-1" d="M33.83,306.46c.55,1.46,1.33,3.05,2.42,4.44,1.07,1.4,2.26,2.81,3.66,3.8,1.33.99,2.61,1.69,3.81,2.09,1.22.36,2.34.46,3.33.34,1.97-.23,3.41-1.37,4.09-2.95.69-1.62.53-3.64-.4-5.59-.49-.96-1.05-1.99-1.83-2.94-.76-.97-1.76-1.83-2.81-2.78-1-.86-2.09-1.54-3.15-2.11-1.03-.61-2.08-1.05-3.1-1.34-2.03,2.32-4.03,4.67-6.01,7.03Z"/>
    <path class="cls-1" d="M37.36,297.53l-.14-.13-2.24-2.01-2.11-2.16c-1.58-1.54-4.18-1.74-6.03-.18l-.45.39c-.9.78-1.4,1.87-1.47,3.01-.05,1.13.4,2.28,1.25,3.18,1.51,1.67,3.22,3.16,4.86,4.68l.16.14c2.03-2.33,4.08-4.64,6.16-6.91Z"/>
    <path class="cls-1" d="M70.69,338.84c.85.85,1.92,1.66,3.16,2.34,1.24.7,2.63,1.33,4.15,1.77,6.51,1.97,11.81.37,13.17-2.9.67-1.58.44-3.41-.71-5.02-1.15-1.6-3.19-3.03-6.2-3.88-3.1-.9-6.79-1.11-9.85-.78l-3.72,8.48Z"/>
    <path class="cls-1" d="M67.48,337.17l-.2-.09-3.12-1.55-3.08-1.65c-2.26-1.23-3.04-3.99-1.81-6.02l.3-.51c1.25-2.06,3.89-2.69,5.99-1.58,1.9,1.06,3.85,2.03,5.8,3l.18.1-4.07,8.3Z"/>
  </g>
  <g>
    <path class="cls-1" d="M27.03,195.71c-2.77,1.45-5.68,4.16-7.36,7.15-.88,1.42-1.3,2.84-1.52,4.1-.2,1.27-.2,2.37.1,3.34.57,1.94,1.91,3.17,3.58,3.6.86.22,1.77.21,2.68,0,.89-.22,1.82-.62,2.74-1.18.91-.56,1.78-1.31,2.58-2.22.87-.87,1.67-1.91,2.37-3.13,1.43-2.2,2.22-4.56,2.59-6.61-2.57-1.71-5.16-3.4-7.77-5.06Z"/>
    <path class="cls-1" d="M36.32,198.06l.11-.15c1.18-1.59,2.27-3.3,3.6-4.81.7-.85.97-1.95.87-3.05-.11-1.1-.56-2.15-1.45-2.97l-.44-.4c-1.78-1.66-4.54-1.34-6.17.56-.75.84-1.38,1.8-2.06,2.69-.66.92-1.36,1.79-1.97,2.73l-.11.18c2.56,1.7,5.09,3.43,7.62,5.21Z"/>
    <path class="cls-1" d="M1.8,238.62c-.56,1.11-1.03,2.43-1.37,3.9C.08,243.98,0,245.6,0,247.29c-.02,1.8.33,3.47.73,4.94.21.74.45,1.42.71,2.06.29.63.63,1.21.97,1.73,1.4,2.08,3.11,3.21,4.9,3.23,1.72.02,3.31-.93,4.4-2.59.54-.83.95-1.85,1.18-3.04.28-1.19.41-2.56.29-4.11-.12-1.6-.3-3.28-.74-4.92-.41-1.65-.84-3.25-1.47-4.69l-9.18-1.28Z"/>
    <path class="cls-1" d="M2.62,234.91l.04-.22c.39-2.39,1.08-4.73,1.65-7.08.75-2.57,3.29-3.98,5.53-3.18l.56.19c1.13.39,2,1.22,2.5,2.22.52,1,.59,2.16.33,3.32l-.82,3.17c-.29,1.06-.44,2.14-.67,3.21l-.04.2c-3.03-.58-6.05-1.19-9.07-1.82Z"/>
  </g>
  <g>
    <path class="cls-1" d="M134.35,149.37c-2.98-.67-6.72-.74-9.89,0-6.17,1.44-8.39,5.54-7.04,8.71,1.39,3.29,6.4,4.89,12.56,3.45,2.89-.68,5.38-1.89,7.14-3.34l-2.77-8.83Z"/>
    <path class="cls-1" d="M140.3,156.98l.2-.06,6.21-2.12c2.27-.77,3.48-3.29,2.68-5.53l-.2-.56c-.8-2.24-3.27-3.43-5.51-2.67l-6.14,2.1-.19.07,2.96,8.76Z"/>
    <path class="cls-1" d="M86.89,151.86c-1.16-.17-2.45-.21-3.83-.07-1.38.16-2.84.49-4.32.98-1.58.51-2.99,1.2-4.2,1.98-1.21.77-2.22,1.62-3.01,2.51-1.57,1.8-2.21,3.78-1.83,5.52.37,1.68,1.63,3.02,3.49,3.66,1.86.62,4.37.67,7.31-.43,3.06-1.02,6.18-3.06,8.45-5.11l-2.05-9.03Z"/>
    <path class="cls-1" d="M90.36,151.29l.2-.04,6.58-1.23c2.41-.41,4.68,1.19,5.07,3.54l.1.58c.39,2.36-1.22,4.59-3.57,5l-6.41,1.19-.2.04-1.77-9.08Z"/>
  </g>
  <g>
    <path class="cls-1" d="M242.28,106.57c-2.93.67-6.39,1.94-8.96,3.81-1.25.92-2.26,1.84-3.01,2.77-.75.94-1.25,1.91-1.52,2.86-.54,1.89-.16,3.69.99,4.97,1.19,1.33,3.13,1.92,5.49,1.72,1.17-.11,2.47-.38,3.78-.91,1.3-.55,2.65-1.3,3.99-2.26,1.25-.9,2.38-1.87,3.29-2.9.9-1.06,1.62-2.13,2.14-3.18l-6.19-6.88Z"/>
    <path class="cls-1" d="M250.91,110.95l.16-.14,1.22-1.15,1.18-1.2,2.35-2.4c1.72-1.76,1.67-4.51-.08-6.14l-.43-.4c-1.75-1.62-4.5-1.59-6.13.09l-2.23,2.31c-.74.78-1.54,1.48-2.31,2.22l-.14.14,6.43,6.67Z"/>
    <path class="cls-1" d="M199.36,121.81c-2.2-.14-4.74.42-7.35,1.48-5.52,2.33-8.68,6.34-8.01,9.87.33,1.69,1.5,3.09,3.35,3.77.93.34,2.02.51,3.26.45,1.23-.08,2.59-.42,4.07-1.01,3.05-1.2,6.02-3.54,7.95-5.89l-3.27-8.66Z"/>
    <path class="cls-1" d="M202.45,120.86l.18-.07,5.81-2.23c2.08-.89,4.58.17,5.54,2.35l.23.54c.95,2.18-.06,4.76-2.27,5.68l-6.07,2.34-.19.07-3.24-8.67Z"/>
  </g>
  <g>
    <path class="cls-1" d="M309.14,15.36c-.14.33-.29.66-.44,1-.17.34-.33.69-.48,1.04-.32.71-.54,1.43-.83,2.16-.59,1.47-.96,2.96-1.32,4.42-.16.71-.22,1.39-.28,2.03-.08.64-.1,1.25-.07,1.84.05,1.16.34,2.22.68,3.1.73,1.78,2.11,3,3.8,3.31.88.16,1.8.05,2.74-.32.94-.37,1.89-.99,2.72-1.92.84-.93,1.7-2.06,2.35-3.49.32-.72.61-1.5.87-2.32.13-.41.25-.84.36-1.27.1-.44.16-.91.23-1.38.12-.88.2-1.76.23-2.6.03-.84-.07-1.7-.16-2.49-.11-.8-.22-1.55-.43-2.26-.22-.72-.48-1.38-.76-1.98-3.06.46-6.13.83-9.19,1.13Z"/>
    <path class="cls-1" d="M317.46,10.23l-.05-.24c-.27-1.28-.75-2.54-1.12-3.79-.51-1.22-.96-2.46-1.58-3.62-.67-1.28-1.7-2.16-2.87-2.45-1.14-.31-2.31-.09-3.27.61l-.48.34c-.97.7-1.6,1.71-1.85,2.7-.13.5-.22,1.03-.18,1.53.02.51.21.97.41,1.46.39.87.84,1.73,1.12,2.66l.49,1.39.35,1.44.05.18c3.01-.64,6.01-1.38,8.99-2.22Z"/>
    <path class="cls-1" d="M285.32,51.35c-.96.5-1.91,1.18-2.83,2.02-.95.82-1.88,1.8-2.71,2.92-1.75,2.41-2.86,4.83-3.19,7.04-.33,2.2.09,4.17,1.27,5.52,2.24,2.61,6.89,2.44,10.84-2.6,1.96-2.63,3.46-6.07,3.86-9.12l-7.23-5.78Z"/>
    <path class="cls-1" d="M287.49,49l.11-.15c1.23-1.6,2.5-3.2,3.71-4.82,1.25-1.78,3.92-2.18,5.9-.87l.49.33c1.98,1.31,2.49,4.02,1.1,5.98l-3.96,5.15-.13.15-7.22-5.76Z"/>
  </g>
</svg>